<?xml version="1.0" encoding="utf-8"?>
<!-- Generator: Adobe Illustrator 27.7.0, SVG Export Plug-In . SVG Version: 6.00 Build 0)  -->
<svg version="1.1" id="Layer_1" xmlns="http://www.w3.org/2000/svg" xmlns:xlink="http://www.w3.org/1999/xlink" x="0px" y="0px"
	 viewBox="0 0 1000 294.14" style="enable-background:new 0 0 1000 294.14;" xml:space="preserve">
<style type="text/css">
	.st0{fill:#FFFFFF;}
	.st1{fill:#07AA4D;}
	.st2{fill:url(#SVGID_1_);}
</style>
<g>
	<g>
		<g>
			<g>
				<path class="st0" d="M71.49,72.14c1.89,4.02,2.83,8.86,2.83,14.53c0,28.28,0,49.46,0,63.56c10.48,0,18.35,0,23.63,0
					c0-11.03,0-19.3,0-24.81c0-1.97,0.71-3.66,2.12-5.08c1.42-1.42,3.11-2.13,5.08-2.13c4.96,0,8.7,0,11.22,0
					c3.07-8.66,5.39-15.12,6.97-19.37c-11.27,0-19.73,0-25.4,0c0-6.77,0-11.82,0-15.12c5.59,0,11.14,0,16.66,0
					c5.59,0,11.19,0,16.78,0c3.31-9.14,5.79-15.99,7.45-20.56c-33.47,0-58.6,0-75.38,0C66.93,65.13,69.61,68.13,71.49,72.14z"/>
				<path class="st0" d="M173.63,150.24c10.48,0,18.35,0,23.63,0c0-38.75,0-67.77,0-87.07c-10.48,0-18.35,0-23.63,0
					C173.63,101.84,173.63,130.86,173.63,150.24z"/>
				<path class="st0" d="M263.4,95.77c0-10.87,0-21.74,0-32.61c-10.48,0-18.35,0-23.63,0c0,32.22,0,56.39,0,72.54
					c0,4.02,1.42,7.44,4.25,10.28c2.84,2.84,6.26,4.25,10.28,4.25c19.37,0,33.91,0,43.6,0c0-9.69,0-16.93,0-21.74
					c-15.36,0-26.86,0-34.5,0C263.4,117.55,263.4,106.64,263.4,95.77z"/>
				<path class="st0" d="M318.99,63.16c0,9.69,0,16.94,0,21.74c11.42,0,20.01,0,25.76,0c0,29.06,0,50.84,0,65.33
					c4.02,0,7.01,0,8.98,0c4.02,0,7.44-1.42,10.28-4.25c2.83-2.84,4.25-6.26,4.25-10.28c0-22.6,0-39.54,0-50.8
					c11.5,0,20.08,0,25.76,0c0-9.69,0-16.93,0-21.74c-12.45,0-24.93,0-37.45,0C344.04,63.16,331.51,63.16,318.99,63.16z"/>
				<path class="st0" d="M454.72,116.09c3.07,0,6.15,0,9.22,0c2.99,0,6.03,0,9.1,0c2.99-8.03,5.24-14.06,6.73-18.08
					c-11.19,0-19.53,0-25.05,0c0-6.38,0-11.14,0-14.29c15.04,0,26.31,0,33.79,0c0-9.14,0-15.99,0-20.56c-25.52,0-44.66,0-57.42,0
					c0,32.22,0,56.39,0,72.54c0,4.02,1.42,7.44,4.25,10.28c2.84,2.84,6.26,4.25,10.28,4.25c19.93,0,34.85,0,44.78,0
					c0-8.58,0-15.04,0-19.37c-15.91,0-27.8,0-35.68,0C454.72,124.32,454.72,119.4,454.72,116.09z"/>
				<path class="st0" d="M598.83,111.25c2.44-4.73,3.66-10.48,3.66-17.25c0-9.61-2.48-17.17-7.44-22.68
					c-5.04-5.43-11.89-8.15-20.56-8.15c-19.77,0-34.62,0-44.54,0c0,38.67,0,67.7,0,87.07c10.48,0,18.35,0,23.63,0
					c0-11.26,0-19.73,0-25.4c4.25,0,7.45,0,9.57,0c5.75,11.26,10.04,19.73,12.88,25.4c11.81,0,20.64,0,26.47,0
					c-6.38-12.6-11.19-22.09-14.41-28.47C592.73,119.48,596.31,115.97,598.83,111.25z M576.03,102.62
					c-1.97,2.05-4.65,3.07-8.03,3.07c-2.44,0-4.85,0-7.21,0c-2.44,0-4.85,0-7.21,0c0-10.4,0-18.19,0-23.39c6.38,0,11.19,0,14.42,0
					c3.39,0,6.06,1.03,8.03,3.07c1.97,2.13,2.95,5.04,2.95,8.74C578.99,97.74,578,100.58,576.03,102.62z"/>
				<path class="st0" d="M698.45,105.81c3.54-1.5,6.26-3.86,8.15-7.09c1.97-3.31,2.95-7.36,2.95-12.17
					c-0.08-7.32-2.28-13.03-6.62-17.13c-4.41-4.17-10.08-6.26-17.01-6.26c-14.38,0-26.11,0-35.28,0c-3.44,0-6.55,0-9.26,0
					c-4.09,0-7.88,0-11.27,0c3.47,1.97,6.15,4.96,8.04,8.98c1.89,4.02,2.83,8.86,2.83,14.53c0,28.28,0,49.46,0,63.56
					c0.14,0,0.26,0,0.4,0c3.23,0,6.28,0,9.26,0c16.28,0,28.85,0,37.64,0c7.01,0,12.76-2.13,17.25-6.38
					c4.41-4.25,6.62-10.12,6.62-17.6c0-5.36-1.18-9.81-3.54-13.35C706.16,109.36,702.78,106.99,698.45,105.81z M665.01,81.24
					c2.68,0,5.39,0,8.15,0c2.68,0,5.39,0,8.15,0c2.21,0,3.98,0.71,5.32,2.13c1.26,1.34,1.89,3.23,1.89,5.67
					c0,2.44-0.63,4.33-1.89,5.67c-1.34,1.34-3.11,2.01-5.32,2.01c-7.25,0-12.68,0-16.31,0C665.01,89.86,665.01,84.71,665.01,81.24z
					 M687.34,129.8c-1.5,1.5-3.51,2.24-6.03,2.24c-2.76,0-5.47,0-8.15,0c-2.76,0-5.47,0-8.15,0c0-7.64,0-13.35,0-17.13
					c7.25,0,12.68,0,16.31,0c2.52,0,4.53,0.75,6.03,2.25c1.49,1.58,2.24,3.7,2.24,6.38C689.5,126.13,688.76,128.22,687.34,129.8z"/>
				<path class="st0" d="M800.21,89.16c0,8.74,0,17.44,0,26.11c0,4.65-1.38,8.31-4.14,10.99c-2.76,2.68-6.54,4.02-11.34,4.02
					s-8.59-1.34-11.34-4.02c-2.76-2.68-4.13-6.34-4.13-10.99V76.64c0-7.44-6.03-13.47-13.47-13.47h-10.04c0,22.92,0,40.09,0,51.51
					c0,11.58,3.47,20.71,10.4,27.41c6.93,6.62,16.46,9.92,28.59,9.92c12.13,0,21.66-3.31,28.59-9.92
					c6.93-6.69,10.4-15.83,10.4-27.41c0-22.92,0-40.09,0-51.51h-23.51C800.21,71.83,800.21,80.49,800.21,89.16z"/>
				<path class="st0" d="M908.53,63.16c-2.52,4.96-5.04,9.97-7.56,15c-2.6,4.96-5.16,9.96-7.68,15c-3.55-7.01-6.63-13.09-9.24-18.24
					c-3.67-7.24-11.09-11.77-19.21-11.77h-13.25c11.89,23.32,20.79,40.8,26.7,52.46c1.02,2.05,1.81,4.18,2.36,6.38
					c0.55,2.29,0.83,4.57,0.83,6.85c0,9.53,0,16.66,0,21.38h23.51c0-9.53,0-16.66,0-21.38c0-2.28,0.27-4.57,0.83-6.85
					c0.55-2.2,1.34-4.33,2.36-6.38c11.97-23.31,20.91-40.8,26.82-52.46H908.53z"/>
			</g>
			<path class="st0" d="M1000,214.35H0V0h1000V214.35z M20.26,193.89h958.29V19.39H20.26V193.89z"/>
		</g>
	</g>
	<g>
		<path class="st0" d="M944.83,70.24v-0.05c0-4.8,3.9-8.83,8.85-8.83s8.8,3.97,8.8,8.78v0.05c0,4.8-3.9,8.83-8.85,8.83
			S944.83,75.04,944.83,70.24z M961.46,70.19v-0.05c0-4.32-3.34-7.8-7.78-7.8c-4.46,0-7.83,3.54-7.83,7.85v0.05
			c0,4.32,3.34,7.8,7.78,7.8C958.1,78.04,961.46,74.5,961.46,70.19z M950.03,65.24h4.17c1.27,0,2.24,0.37,2.9,1.02
			c0.51,0.51,0.78,1.22,0.78,2.05v0.05c0,1.51-0.83,2.46-2.02,2.9l2.29,3.36h-2.41l-2-3.02h-1.63v3.02h-2.07V65.24z M954.17,69.82
			c1.05,0,1.61-0.56,1.61-1.34v-0.05c0-0.9-0.63-1.37-1.66-1.37h-2.02v2.76H954.17z"/>
	</g>
</g>
<g>
	<path class="st0" d="M198.7,272.95c3.78,1.79,6.15,5.38,6.15,9.76c0,6.5-5.61,11.43-13.02,11.43h-18.5v-40.13h18.13
		c7.12,0,12.31,4.34,12.31,10.27C203.77,267.86,201.76,271.09,198.7,272.95L198.7,272.95z M193.92,281.39
		c0-2.13-1.56-3.63-3.96-3.63h-6.01v7.3h6.01C192.35,285.06,193.92,283.56,193.92,281.39z M193.28,266.11
		c0-2.08-1.43-3.49-3.74-3.49h-5.59v6.99h5.59C191.85,269.6,193.28,268.19,193.28,266.11L193.28,266.11z"/>
	<path class="st0" d="M241.97,284.55v9.59h-26.16v-40.13h25.68v9.56h-14.67v5.91H240v9.07h-13.18v6.01H241.97z"/>
	<path class="st0" d="M283.56,263.96h-10.9v30.17h-11.1v-30.17h-10.9v-9.95h32.91V263.96z"/>
	<path class="st0" d="M323.74,263.96h-10.9v30.17h-11.1v-30.17h-10.9v-9.95h32.91V263.96z"/>
	<path class="st0" d="M359.99,284.55v9.59h-26.16v-40.13h25.68v9.56h-14.67v5.91h13.18v9.07h-13.18v6.01H359.99z"/>
	<path class="st0" d="M386.55,281.86h-4.01v12.28h-11.06v-40.13h17.39c8.65,0,14.92,5.81,14.92,14.2c0,4.92-2.41,8.96-6.37,11.33
		l7.97,14.59h-12.34L386.55,281.86z M382.55,272.54h5.05c3.09,0,4.87-1.86,4.87-4.37c0-2.51-1.78-4.34-4.87-4.34h-5.05V272.54z"/>
	<path class="st0" d="M456.02,287.62H441.8l-2.22,6.52h-11.85l15.76-40.13h10.81l16.11,40.13h-12.17L456.02,287.62z M448.89,266.53
		l-4.4,12.43h8.83L448.89,266.53z"/>
	<path class="st0" d="M479.42,254.01h11.2v40.13h-11.2V254.01z"/>
	<path class="st0" d="M518.62,281.86h-4.01v12.28h-11.06v-40.13h17.39c8.65,0,14.92,5.81,14.92,14.2c0,4.92-2.41,8.96-6.37,11.33
		l7.97,14.59h-12.34L518.62,281.86z M514.61,272.54h5.05c3.09,0,4.87-1.86,4.87-4.37c0-2.51-1.78-4.34-4.87-4.34h-5.05V272.54z"/>
	<path class="st0" d="M576.21,264.01v6.39h12.89v9.68h-12.89v14.06h-11.15v-40.13h25.54v10H576.21z"/>
	<path class="st0" d="M599.13,274.07c0-12.26,9.21-21.08,22.11-21.08c12.87,0,22.04,8.78,22.04,21.08s-9.17,21.08-22.04,21.08
		C608.34,295.15,599.13,286.34,599.13,274.07z M621.24,284.86c6.11,0,10.53-4.51,10.53-10.79s-4.42-10.79-10.53-10.79
		c-6.11,0-10.6,4.54-10.6,10.79S615.13,284.86,621.24,284.86L621.24,284.86z"/>
	<path class="st0" d="M669.14,281.86h-4.01v12.28h-11.06v-40.13h17.39c8.65,0,14.92,5.81,14.92,14.2c0,4.92-2.41,8.96-6.37,11.33
		l7.97,14.59h-12.34L669.14,281.86z M665.13,272.54h5.05c3.09,0,4.87-1.86,4.87-4.37c0-2.51-1.78-4.34-4.87-4.34h-5.05V272.54z"/>
	<path class="st0" d="M738.61,287.62h-14.22l-2.22,6.52h-11.85l15.76-40.13h10.81L753,294.14h-12.17L738.61,287.62z M731.48,266.53
		l-4.4,12.43h8.83L731.48,266.53z"/>
	<path class="st0" d="M787.49,284.01v10.12h-25.48v-40.13h11.2v30H787.49z"/>
	<path class="st0" d="M823.09,284.01v10.12h-25.48v-40.13h11.2v30H823.09z"/>
</g>
<g>
	<path class="st0" d="M823.07,256.42h-2.35v-1.2h6v1.2h-2.35v6.18h-1.3V256.42z"/>
	<path class="st0" d="M827.96,255.22h1.38l2.25,3.49l2.25-3.49h1.38v7.38h-1.3v-5.29l-2.33,3.48h-0.04l-2.31-3.46v5.27h-1.28V255.22
		z"/>
</g>
</svg>
